<?xml version="1.0" encoding="utf-8"?>
<!-- Generator: Adobe Illustrator 29.4.0, SVG Export Plug-In . SVG Version: 9.03 Build 0)  -->
<svg version="1.0" id="레이어_1" xmlns="http://www.w3.org/2000/svg" xmlns:xlink="http://www.w3.org/1999/xlink" x="0px"
	 y="0px" viewBox="0 0 648.39 236.85" style="enable-background:new 0 0 648.39 236.85;" xml:space="preserve">
<path d="M122.8,118.3H25.4l-24-24V49.5h117.4v20.8h-79v26.4h83V118.3z M178.8,199.9H27.4l-20-20v-26.6h130.8v-7H7.4v-20h169.4v46.6
	h-131v7h133V199.9z M138.2,49.5h38.6v22.2h27.4v20.8h-27.4v25.8h-38.6V49.5z"/>
<path d="M338,195.9h-99.4l-24-24v-58.4h76.8V72.7h-75.8V51.9H330v82.4h-77v40.8h85V195.9z M363.4,51.9h38.6v144h-38.6V51.9z"/>
<polygon points="454.8,175.1 535.79,175.1 535.79,195.9 440.4,195.9 416.4,171.9 416.4,51.9 454.8,51.9 "/>
<g id="생성형_개체">
	<path d="M574.63,15.81c0.61,0.04,1.46,0.14,2.09,0.21c0.46,0.05,1.1,0.14,1.57,0.21c0.2,0.03,0.73,0.15,1.04,0.21
		c0.31,0.06,0.74,0.14,1.04,0.21c0.2,0.05,0.54,0.15,0.78,0.21c0.24,0.06,0.55,0.14,0.78,0.21c0.26,0.08,0.56,0.14,0.78,0.21
		c7.02,2.27,13.07,6.94,16.2,12.5c0.17,0.32,0.37,0.73,0.52,1.06c0.11,0.23,0.25,0.4,0.26,0.42c0.08,0.19,0.18,0.44,0.26,0.64
		c0.08,0.2,0.2,0.46,0.26,0.64c0.09,0.24,0.19,0.6,0.26,0.85c0.07,0.26,0.23,0.71,0.26,0.85c0.08,0.39,0.2,0.9,0.26,1.27
		c0.1,0.7,0.23,1.65,0.26,2.33c0.03,0.63,0.02,1.28,0,1.91c-0.03,0.74-0.16,1.79-0.26,2.54c-0.06,0.37-0.18,0.88-0.26,1.27
		c-0.03,0.15-0.19,0.57-0.26,0.85c-0.07,0.24-0.18,0.59-0.26,0.85c-0.03,0.1-0.18,0.42-0.26,0.64c-0.07,0.18-0.18,0.44-0.26,0.64
		c-0.01,0.02-0.14,0.16-0.26,0.42c-3.13,5.73-9.24,10.8-16.46,13.13c-0.23,0.07-0.51,0.13-0.78,0.21c-0.23,0.07-0.53,0.14-0.78,0.21
		c-0.24,0.07-0.55,0.16-0.78,0.21c-0.3,0.08-0.71,0.14-1.04,0.21c-0.31,0.07-0.75,0.16-1.04,0.21c-0.39,0.07-0.93,0.16-1.31,0.21
		c-0.49,0.06-1.11,0.17-1.57,0.21c-2.01,0.12-5.04,0.12-7.05,0c-0.45-0.04-1.09-0.15-1.57-0.21c-0.37-0.05-0.91-0.15-1.31-0.21
		c-0.29-0.05-0.73-0.15-1.04-0.21c-0.1-0.02-0.51-0.15-0.78-0.21c-0.33-0.07-0.74-0.14-1.04-0.21c-0.23-0.06-0.55-0.15-0.78-0.21
		c-0.03-0.01-0.21-0.11-0.52-0.21c-0.35-0.12-0.63-0.16-0.78-0.21c-6.84-2.45-13.53-7.62-16.2-13.35c-0.09-0.19-0.17-0.43-0.26-0.64
		c-0.08-0.19-0.19-0.45-0.26-0.64c-0.09-0.24-0.17-0.58-0.26-0.85c-0.08-0.25-0.2-0.6-0.26-0.85c-0.09-0.32-0.19-0.74-0.26-1.06
		c-0.09-0.44-0.2-1.05-0.26-1.48c-0.11-1.39-0.11-3.27,0-4.66c0.06-0.43,0.17-1.05,0.26-1.48c0.07-0.32,0.18-0.74,0.26-1.06
		c0.07-0.24,0.18-0.59,0.26-0.85c0.09-0.27,0.17-0.6,0.26-0.85c0.07-0.19,0.18-0.44,0.26-0.64c0.09-0.21,0.17-0.44,0.26-0.64
		c2.73-5.92,9.22-10.79,16.2-13.35c0.33-0.1,0.49-0.2,0.52-0.21c0.24-0.07,0.55-0.15,0.78-0.21c0.25-0.06,0.6-0.17,0.78-0.21
		c0.29-0.06,0.7-0.2,0.78-0.21c0.32-0.06,0.75-0.16,1.04-0.21c0.4-0.07,0.92-0.16,1.31-0.21c0.41-0.05,0.95-0.18,1.31-0.21
		c0.64-0.07,1.48-0.18,2.09-0.21C570.94,15.72,573.08,15.74,574.63,15.81z"/>
	<path d="M558.69,65.39c0.53,0.05,1.29,0.14,1.83,0.21c0.16,0.02,0.75,0.16,1.04,0.21c0.31,0.06,0.76,0.14,1.04,0.21
		c0.03,0.01,0.15,0.1,0.52,0.21c3.13,1.07,5.72,2.88,7.58,5.19l19.33,33.47c0.71,0.58,13.85,0.3,15.93,0.32
		c9.54,0.24,19.97-0.34,29.26,0.21c0.53,0.05,1.32,0.13,1.83,0.21c0.28,0.05,0.76,0.15,1.04,0.21c0.33,0.08,0.78,0.13,1.04,0.21
		c0.26,0.08,0.57,0.14,0.78,0.21c3.18,1.08,6.66,4.16,7.84,6.78c0.08,0.27,0.25,0.6,0.26,0.64c0.06,0.29,0.26,0.8,0.26,0.85
		c0.13,0.99,0.13,3.03,0,4.03c-0.02,0.14-0.2,0.78-0.26,1.06c-0.01,0.03-0.18,0.38-0.26,0.64c-1.35,2.92-4.78,5.64-8.36,6.78
		c-0.22,0.06-0.67,0.19-0.78,0.21c-0.28,0.06-0.81,0.18-1.04,0.21c-0.52,0.08-1.29,0.16-1.83,0.21c-4.59,0.29-9.93-0.04-14.63,0
		c-11.67-0.08-30.88,1.01-41.54-0.21c-0.06-0.01-0.8-0.16-1.04-0.21c-0.06-0.01-0.61-0.16-0.78-0.21c-1.84-0.52-4.38-2.39-5.49-3.71
		c-1.73-2.05-8.01-14.59-8.88-15.04c-1.08-0.56-0.64,0.49-0.78,0.74c-0.27,0.48-0.16,0.54-0.26,0.85c-0.04,0.12-0.17,0.35-0.26,0.64
		c-0.18,0.4-0.16,0.57-0.26,0.85c-0.11,0.3-0.16,0.58-0.26,0.85c-0.12,0.31-0.16,0.57-0.26,0.85c-0.06,0.18-0.18,0.4-0.26,0.64
		c-0.1,0.3-0.17,0.57-0.26,0.85c-0.04,0.13-0.17,0.37-0.26,0.64c-0.1,0.3-0.17,0.57-0.26,0.85c-0.1,0.29-0.17,0.57-0.26,0.85
		c-0.04,0.12-0.17,0.38-0.26,0.64c-0.1,0.29-0.17,0.57-0.26,0.85c-0.1,0.29-0.17,0.57-0.26,0.85c-0.1,0.29-0.17,0.57-0.26,0.85
		c-0.04,0.12-0.17,0.37-0.26,0.64c-0.1,0.29-0.17,0.57-0.26,0.85c-0.1,0.29-0.17,0.57-0.26,0.85c-0.04,0.12-0.17,0.37-0.26,0.64
		c-0.1,0.29-0.17,0.57-0.26,0.85c-0.1,0.29-0.17,0.57-0.26,0.85c-0.09,0.29-0.17,0.57-0.26,0.85c-0.03,0.11-0.17,0.37-0.26,0.64
		c-0.09,0.28-0.17,0.57-0.26,0.85c-0.09,0.28-0.17,0.57-0.26,0.85c-0.09,0.28-0.17,0.57-0.26,0.85c-0.03,0.09-0.17,0.36-0.26,0.64
		c-0.09,0.28-0.17,0.57-0.26,0.85c-0.09,0.28-0.17,0.57-0.26,0.85c-0.09,0.28-0.17,0.56-0.26,0.85c-0.03,0.09-0.18,0.37-0.26,0.64
		c-0.08,0.27-0.18,0.56-0.26,0.85c-0.08,0.27-0.18,0.56-0.26,0.85c-0.01,0.04-0.18,0.34-0.26,0.64c-0.08,0.27-0.18,0.57-0.26,0.85
		c-0.08,0.27-0.18,0.56-0.26,0.85c-0.09,0.29-0.2,0.51-0.26,0.85c-0.01,0.03-0.21,0.11-0.26,0.64c-0.01,0.06-0.52,0.8-0.26,1.17
		l37.09,30.08c0.58,0.92,1.62,1.92,2.09,2.86c0.08,0.17,0.18,0.44,0.26,0.64c0.09,0.21,0.19,0.61,0.26,0.85
		c0.1,0.34,0.23,1.14,0.26,1.48c0.02,0.41,0.02,0.86,0,1.27c-0.02,0.38-0.21,1.03-0.26,1.48c-0.01,0.12-0.21,0.69-0.26,1.06
		c-0.07,0.4-0.18,0.85-0.26,1.27c-0.06,0.31-0.19,0.71-0.26,1.06c-0.07,0.33-0.19,0.71-0.26,1.06c-0.07,0.33-0.18,0.71-0.26,1.06
		c-0.07,0.33-0.18,0.71-0.26,1.06c-0.1,0.43-0.16,0.86-0.26,1.27c-0.04,0.18-0.18,0.53-0.26,0.85c-0.08,0.34-0.18,0.71-0.26,1.06
		c-0.08,0.34-0.18,0.71-0.26,1.06c-0.08,0.35-0.17,0.71-0.26,1.06c-0.06,0.25-0.19,0.56-0.26,0.85c-0.09,0.35-0.17,0.71-0.26,1.06
		c-0.06,0.25-0.19,0.56-0.26,0.85c-0.09,0.35-0.17,0.71-0.26,1.06c-0.06,0.25-0.19,0.56-0.26,0.85c-0.09,0.35-0.17,0.71-0.26,1.06
		c-0.07,0.25-0.19,0.56-0.26,0.85c-0.09,0.35-0.17,0.71-0.26,1.06c-0.07,0.26-0.19,0.56-0.26,0.85c-0.09,0.36-0.17,0.71-0.26,1.06
		c-0.07,0.26-0.19,0.56-0.26,0.85c-0.09,0.36-0.17,0.71-0.26,1.06c-0.09,0.36-0.17,0.71-0.26,1.06c-0.07,0.26-0.18,0.56-0.26,0.85
		c-0.1,0.36-0.17,0.71-0.26,1.06c-0.07,0.26-0.18,0.56-0.26,0.85c-0.1,0.36-0.16,0.71-0.26,1.06c-0.07,0.26-0.18,0.56-0.26,0.85
		c-0.07,0.26-0.18,0.56-0.26,0.85c-0.1,0.36-0.16,0.71-0.26,1.06c-0.08,0.27-0.18,0.56-0.26,0.85c-0.1,0.37-0.16,0.71-0.26,1.06
		c-0.08,0.27-0.18,0.56-0.26,0.85c-0.08,0.27-0.18,0.56-0.26,0.85c-0.08,0.27-0.18,0.56-0.26,0.85c-0.11,0.37-0.16,0.71-0.26,1.06
		c-0.08,0.27-0.18,0.56-0.26,0.85c-0.08,0.27-0.18,0.57-0.26,0.85c-0.11,0.37-0.16,0.71-0.26,1.06c-0.08,0.27-0.18,0.57-0.26,0.85
		c-0.11,0.37-0.16,0.72-0.26,1.06c-0.08,0.27-0.18,0.57-0.26,0.85c-0.11,0.37-0.16,0.72-0.26,1.06c-0.08,0.28-0.18,0.57-0.26,0.85
		c-0.12,0.38-0.16,0.72-0.26,1.06c-0.08,0.27-0.17,0.57-0.26,0.85c-0.12,0.38-0.15,0.72-0.26,1.06c-0.09,0.28-0.17,0.58-0.26,0.85
		c-0.1,0.29-0.17,0.57-0.26,0.85c-0.17,0.47-0.16,0.81-0.26,1.06c-0.08,0.19-0.18,0.45-0.26,0.64c-0.14,0.35-0.17,0.65-0.26,0.85
		c-0.01,0.02-0.15,0.19-0.26,0.42c-1.59,2.8-5,5.71-8.62,6.78c-0.2,0.06-0.6,0.17-0.78,0.21c-0.27,0.06-0.74,0.2-0.78,0.21
		c-0.31,0.05-1.12,0.19-1.31,0.21c-1.24,0.12-3.96,0.1-5.22,0c-0.16-0.01-0.94-0.16-1.31-0.21c-0.04-0.01-0.41-0.14-0.78-0.21
		c-0.04-0.01-0.55-0.15-0.78-0.21c-3.32-1.1-7.68-3.95-8.88-6.78c-0.06-0.14-0.25-0.59-0.26-0.64c-0.07-0.22-0.23-0.88-0.26-1.06
		c-0.16-0.98-0.06-2.76,0-3.81c0.06-0.44,0.18-1.02,0.26-1.48c0.05-0.31,0.2-0.71,0.26-1.06c0.06-0.31,0.19-0.72,0.26-1.06
		c0.03-0.15,0.19-0.52,0.26-0.85c0.04-0.16,0.19-0.52,0.26-0.85c0.04-0.17,0.19-0.53,0.26-0.85c0.09-0.35,0.17-0.71,0.26-1.06
		c0.06-0.25,0.19-0.56,0.26-0.85c0.07-0.25,0.19-0.56,0.26-0.85c0.09-0.35,0.17-0.71,0.26-1.06c0.07-0.25,0.19-0.56,0.26-0.85
		c0.1-0.36,0.17-0.71,0.26-1.06c0.07-0.26,0.18-0.56,0.26-0.85c0.07-0.26,0.18-0.56,0.26-0.85c0.07-0.26,0.18-0.56,0.26-0.85
		c0.1-0.36,0.17-0.71,0.26-1.06c0.07-0.26,0.18-0.56,0.26-0.85c0.07-0.26,0.18-0.56,0.26-0.85c0.1-0.36,0.17-0.71,0.26-1.06
		c0.07-0.26,0.18-0.56,0.26-0.85c0.07-0.26,0.18-0.56,0.26-0.85c0.07-0.26,0.18-0.56,0.26-0.85c0.1-0.36,0.17-0.71,0.26-1.06
		c0.07-0.26,0.18-0.56,0.26-0.85c0.07-0.26,0.18-0.56,0.26-0.85c0.1-0.36,0.17-0.71,0.26-1.06c0.07-0.26,0.18-0.56,0.26-0.85
		c0.07-0.26,0.18-0.56,0.26-0.85c0.1-0.36,0.16-0.71,0.26-1.06c0.07-0.26,0.18-0.56,0.26-0.85c0.07-0.26,0.18-0.56,0.26-0.85
		c0.1-0.36,0.17-0.71,0.26-1.06c0.07-0.26,0.18-0.56,0.26-0.85c0.1-0.36,0.17-0.71,0.26-1.06c0.07-0.26,0.18-0.56,0.26-0.85
		c0.1-0.36,0.17-0.71,0.26-1.06c0.09-0.35,0.17-0.71,0.26-1.06c0.07-0.26,0.19-0.56,0.26-0.85c0.09-0.36,0.17-0.71,0.26-1.06
		c0.07-0.26,0.19-0.56,0.26-0.85c0.07-0.26,0.19-0.56,0.26-0.85c0.07-0.26,0.19-0.54,0.26-0.85c0.04-0.18,0.19-0.47,0.26-0.85
		c0.02-0.1,0.22-0.42,0.26-0.85c0-0.04,0.33-0.26,0.26-0.85c0.05-0.38,0.55-0.75,0-1.38l-16.85-13.66c-0.85,0-0.53,0.65-0.65,0.85
		c-0.29,0.48-0.16,0.56-0.26,0.85c-0.11,0.31-0.16,0.56-0.26,0.85c-0.04,0.11-0.17,0.36-0.26,0.64c-0.16,0.39-0.16,0.58-0.26,0.85
		c-0.12,0.31-0.16,0.57-0.26,0.85c-0.11,0.3-0.16,0.58-0.26,0.85c-0.11,0.3-0.16,0.57-0.26,0.85c-0.07,0.19-0.18,0.41-0.26,0.64
		c-0.09,0.29-0.17,0.57-0.26,0.85c-0.1,0.29-0.17,0.57-0.26,0.85c-0.04,0.12-0.17,0.38-0.26,0.64c-0.1,0.29-0.17,0.57-0.26,0.85
		c-0.09,0.29-0.17,0.57-0.26,0.85c-0.09,0.29-0.17,0.57-0.26,0.85c-0.1,0.29-0.17,0.57-0.26,0.85c-0.1,0.29-0.17,0.57-0.26,0.85
		c-0.04,0.12-0.17,0.38-0.26,0.64c-0.11,0.3-0.16,0.58-0.26,0.85c-0.11,0.3-0.16,0.58-0.26,0.85c-0.11,0.3-0.16,0.59-0.26,0.85
		c-0.13,0.34-0.16,0.61-0.26,0.85c-0.16,0.38-0.17,0.64-0.26,0.85c-0.17,0.39-0.17,0.65-0.26,0.85c-0.09,0.21-0.17,0.44-0.26,0.64
		c-0.1,0.22-0.17,0.45-0.26,0.64c-0.14,0.28-0.2,0.52-0.26,0.64c-1.13,2.04-3.89,4.73-6.53,5.51c-0.14,0.04-0.74,0.2-0.78,0.21
		c-0.32,0.06-0.97-0.18-1.04,0.21c-22.76-1.54-49.83,2.05-72.1,0c-0.05,0-0.69-0.16-1.04-0.21c-0.04-0.01-0.45-0.14-0.78-0.21
		c-3.54-1.04-7.74-3.9-9.14-6.78c-0.06-0.12-0.14-0.53-0.26-0.85c-0.09-0.23-0.19-0.6-0.26-0.85c-0.11-0.37-0.21-1.1-0.26-1.48
		c-0.07-0.83-0.06-1.92,0-2.75c0.05-0.39,0.16-1.1,0.26-1.48c0.09-0.33,0.16-0.77,0.26-1.06c0.05-0.16,0.19-0.46,0.26-0.64
		c0.09-0.2,0.17-0.47,0.26-0.64c1.28-2.51,4.95-5.59,8.1-6.57c0.22-0.07,0.54-0.15,0.78-0.21c0.28-0.08,0.72-0.14,1.04-0.21
		c0.3-0.06,0.77-0.17,1.04-0.21c0.74-0.12,1.82-0.14,2.61-0.21c17.17-0.85,35.36,0.63,52.64,0c0.24-0.07,0.08-0.38,0.13-0.42
		c0.47-0.41,0.13-0.58,0.26-0.85c0.21-0.44,0.16-0.59,0.26-0.85c0.13-0.32,0.16-0.55,0.26-0.85c0.09-0.29,0.17-0.57,0.26-0.85
		c0.03-0.1,0.18-0.38,0.26-0.64c0.12-0.31,0.16-0.56,0.26-0.85c0.11-0.3,0.16-0.57,0.26-0.85c0.1-0.3,0.17-0.57,0.26-0.85
		c0.1-0.29,0.17-0.57,0.26-0.85c0.04-0.11,0.17-0.38,0.26-0.64c0.1-0.29,0.17-0.57,0.26-0.85c0.09-0.29,0.17-0.57,0.26-0.85
		c0.09-0.29,0.17-0.57,0.26-0.85c0.09-0.29,0.17-0.57,0.26-0.85c0.09-0.29,0.17-0.57,0.26-0.85c0.09-0.29,0.17-0.57,0.26-0.85
		c0.09-0.28,0.17-0.57,0.26-0.85c0.09-0.29,0.17-0.57,0.26-0.85c0.03-0.11,0.17-0.37,0.26-0.64c0.09-0.29,0.17-0.57,0.26-0.85
		c0.09-0.29,0.17-0.57,0.26-0.85c0.09-0.29,0.17-0.57,0.26-0.85c0.09-0.29,0.17-0.57,0.26-0.85c0.04-0.11,0.17-0.37,0.26-0.64
		c0.09-0.29,0.17-0.57,0.26-0.85c0.09-0.29,0.17-0.57,0.26-0.85c0.09-0.29,0.17-0.57,0.26-0.85c0.09-0.29,0.17-0.57,0.26-0.85
		c0.03-0.1,0.17-0.37,0.26-0.64c0.09-0.29,0.17-0.57,0.26-0.85c0.09-0.29,0.17-0.57,0.26-0.85c0.09-0.29,0.17-0.57,0.26-0.85
		c0.09-0.29,0.17-0.57,0.26-0.85c0.03-0.11,0.17-0.37,0.26-0.64c0.09-0.29,0.17-0.57,0.26-0.85c0.09-0.29,0.17-0.57,0.26-0.85
		c0.09-0.29,0.17-0.57,0.26-0.85c0.09-0.29,0.17-0.57,0.26-0.85c0.03-0.11,0.17-0.37,0.26-0.64c0.09-0.29,0.17-0.57,0.26-0.85
		c0.09-0.29,0.17-0.57,0.26-0.85c0.09-0.29,0.17-0.57,0.26-0.85c0.09-0.29,0.17-0.57,0.26-0.85c0.03-0.11,0.17-0.37,0.26-0.64
		c0.09-0.29,0.17-0.57,0.26-0.85c0.09-0.29,0.17-0.57,0.26-0.85c0.09-0.29,0.17-0.57,0.26-0.85c0.09-0.29,0.17-0.57,0.26-0.85
		c0.09-0.29,0.17-0.57,0.26-0.85c0.03-0.1,0.17-0.37,0.26-0.64c0.09-0.28,0.17-0.57,0.26-0.85c0.09-0.28,0.17-0.57,0.26-0.85
		c0.09-0.28,0.17-0.57,0.26-0.85c0.09-0.28,0.17-0.57,0.26-0.85c0.03-0.1,0.17-0.37,0.26-0.64c0.09-0.28,0.17-0.57,0.26-0.85
		c0.09-0.28,0.17-0.57,0.26-0.85c0.09-0.28,0.17-0.57,0.26-0.85c0.09-0.28,0.17-0.57,0.26-0.85c0.03-0.1,0.17-0.37,0.26-0.64
		c0.09-0.28,0.17-0.57,0.26-0.85c0.09-0.28,0.17-0.57,0.26-0.85c0.09-0.28,0.17-0.57,0.26-0.85c0.03-0.1,0.17-0.37,0.26-0.64
		c0.09-0.28,0.17-0.57,0.26-0.85c0.09-0.28,0.17-0.57,0.26-0.85c0.09-0.28,0.17-0.57,0.26-0.85c0.09-0.28,0.17-0.57,0.26-0.85
		c0.03-0.1,0.17-0.37,0.26-0.64c0.09-0.28,0.17-0.57,0.26-0.85c0.09-0.28,0.17-0.57,0.26-0.85c0.09-0.28,0.17-0.57,0.26-0.85
		c0.03-0.1,0.17-0.37,0.26-0.64c0.09-0.28,0.17-0.57,0.26-0.85c0.09-0.28,0.17-0.57,0.26-0.85c0.09-0.29,0.17-0.57,0.26-0.85
		c0.09-0.29,0.17-0.57,0.26-0.85c0.03-0.1,0.17-0.37,0.26-0.64c0.09-0.28,0.17-0.57,0.26-0.85c0.09-0.28,0.17-0.57,0.26-0.85
		c0.09-0.28,0.17-0.57,0.26-0.85c0.03-0.1,0.17-0.37,0.26-0.64c0.09-0.28,0.17-0.57,0.26-0.85c0.09-0.28,0.17-0.57,0.26-0.85
		c0.09-0.28,0.17-0.57,0.26-0.85c0.03-0.1,0.17-0.37,0.26-0.64c0.09-0.28,0.17-0.57,0.26-0.85c0.09-0.28,0.17-0.57,0.26-0.85
		c0.09-0.28,0.17-0.56,0.26-0.85c0.09-0.28,0.17-0.57,0.26-0.85c0.03-0.08,0.18-0.36,0.26-0.64c0.09-0.28,0.17-0.57,0.26-0.85
		c0.09-0.28,0.17-0.57,0.26-0.85c0.09-0.28,0.17-0.57,0.26-0.85c0.09-0.29,0.17-0.56,0.26-0.85c0.03-0.08,0.17-0.33,0.26-0.64
		c0.09-0.29,0.18-0.55,0.26-0.85c0.06-0.22,0.21-0.39,0.26-0.85c0-0.03,0.3-0.01,0.26-0.64c0.06-0.19,0.35-0.75,0.52-0.95
		l-0.39-0.32c-0.54-0.21-1.46,0.2-1.7,0.21c-1.11-0.1-2.1,0.17-3.13,0.21c-1.13,0.07-2.27,0.14-3.4,0.21
		c-1.13,0.06-2.28,0.15-3.4,0.21c-1.14,0.07-2.26,0.14-3.4,0.21c-1.14,0.08-2.25,0.13-3.4,0.21c-1.22,0.08-2.43,0.12-3.66,0.21
		c-1.23,0.11-2.1-0.05-3.4,0.21c-0.55,0.04-1.14-0.03-1.7,0c-0.3,0.12-0.02,0.69-0.13,0.85c-0.32,0.48-0.16,0.52-0.26,0.85
		c-0.09,0.29-0.18,0.54-0.26,0.85c-0.21,0.51-0.15,0.7-0.26,1.06c-0.12,0.38-0.15,0.71-0.26,1.06c-0.09,0.28-0.18,0.55-0.26,0.85
		c-0.11,0.37-0.16,0.71-0.26,1.06c-0.07,0.26-0.18,0.57-0.26,0.85c-0.11,0.37-0.16,0.71-0.26,1.06c-0.07,0.26-0.18,0.56-0.26,0.85
		c-0.1,0.36-0.16,0.71-0.26,1.06c-0.1,0.36-0.16,0.71-0.26,1.06c-0.07,0.26-0.18,0.56-0.26,0.85c-0.1,0.36-0.16,0.71-0.26,1.06
		c-0.07,0.26-0.18,0.56-0.26,0.85c-0.1,0.36-0.17,0.71-0.26,1.06c-0.1,0.36-0.16,0.71-0.26,1.06c-0.07,0.26-0.18,0.56-0.26,0.85
		c-0.11,0.37-0.16,0.72-0.26,1.06c-0.08,0.27-0.18,0.57-0.26,0.85c-0.1,0.36-0.16,0.71-0.26,1.06c-0.1,0.36-0.16,0.72-0.26,1.06
		c-0.08,0.27-0.18,0.56-0.26,0.85c-0.12,0.38-0.15,0.73-0.26,1.06c-0.13,0.38-0.15,0.73-0.26,1.06c-0.13,0.38-0.14,0.75-0.26,1.06
		c-0.13,0.33-0.17,0.62-0.26,0.85c-0.16,0.38-0.18,0.66-0.26,0.85c-0.09,0.21-0.17,0.46-0.26,0.64c-1.2,2.38-4.61,5.23-7.58,6.14
		c-0.19,0.06-0.6,0.17-0.78,0.21c-0.26,0.06-0.8,0.17-1.04,0.21c-0.33,0.05-1.11,0.19-1.31,0.21c-1.04,0.1-2.84,0.06-3.92,0
		c-0.43-0.04-1.14-0.14-1.57-0.21c-0.29-0.05-0.76-0.14-1.04-0.21c-0.03-0.01-0.14-0.1-0.52-0.21c-2.93-1-6.81-3.88-7.84-6.36
		c-0.09-0.21-0.2-0.62-0.26-0.85c-0.07-0.24-0.23-0.88-0.26-1.06c-0.13-0.8-0.04-2.11,0-2.97c0.05-0.37,0.19-0.86,0.26-1.27
		c0.05-0.3,0.19-0.72,0.26-1.06c0.03-0.14,0.19-0.51,0.26-0.85c0.03-0.14,0.19-0.53,0.26-0.85c0.08-0.34,0.18-0.71,0.26-1.06
		c0.06-0.24,0.19-0.56,0.26-0.85c0.08-0.34,0.18-0.71,0.26-1.06c0.06-0.25,0.19-0.56,0.26-0.85c0.09-0.35,0.17-0.71,0.26-1.06
		c0.06-0.25,0.19-0.56,0.26-0.85c0.09-0.35,0.17-0.71,0.26-1.06c0.06-0.25,0.19-0.56,0.26-0.85c0.09-0.35,0.17-0.71,0.26-1.06
		c0.07-0.25,0.19-0.56,0.26-0.85c0.09-0.35,0.17-0.71,0.26-1.06c0.07-0.26,0.19-0.56,0.26-0.85c0.09-0.36,0.17-0.71,0.26-1.06
		c0.07-0.26,0.18-0.56,0.26-0.85c0.1-0.36,0.17-0.71,0.26-1.06c0.07-0.26,0.18-0.57,0.26-0.85c0.1-0.36,0.16-0.72,0.26-1.06
		c0.08-0.27,0.18-0.56,0.26-0.85c0.08-0.27,0.18-0.56,0.26-0.85c0.11-0.37,0.16-0.72,0.26-1.06c0.08-0.27,0.18-0.57,0.26-0.85
		c0.11-0.37,0.16-0.72,0.26-1.06c0.08-0.27,0.18-0.56,0.26-0.85c0.11-0.37,0.16-0.72,0.26-1.06c0.08-0.27,0.18-0.57,0.26-0.85
		c0.08-0.28,0.17-0.57,0.26-0.85c0.11-0.37,0.16-0.72,0.26-1.06c0.08-0.27,0.17-0.57,0.26-0.85c0.12-0.38,0.15-0.72,0.26-1.06
		c0.09-0.28,0.17-0.58,0.26-0.85c0.1-0.29,0.17-0.57,0.26-0.85c0.1-0.29,0.16-0.58,0.26-0.85c0.11-0.3,0.16-0.59,0.26-0.85
		c0.14-0.34,0.16-0.61,0.26-0.85c0.01-0.02,0.13-0.13,0.26-0.42c0.17-0.32,0.21-0.56,0.26-0.64c1.45-2.31,4.57-5.18,7.58-6.14
		c0.22-0.07,0.53-0.14,0.78-0.21c0.21-0.06,0.59-0.17,0.78-0.21c0.36-0.08,0.91-0.14,1.31-0.21c0.62-0.1,1.42-0.13,2.09-0.21
		c1.09-0.11,2.27-0.12,3.4-0.21c1.11-0.1,2.27-0.13,3.4-0.21c1.21-0.09,2.44-0.13,3.66-0.21c1.12-0.08,2.27-0.13,3.4-0.21
		c1.13-0.08,2.27-0.14,3.4-0.21c1.21-0.08,2.44-0.13,3.66-0.21c1.04-0.07,2.1-0.14,3.13-0.21c1.21-0.08,2.45-0.14,3.66-0.21
		c1.12-0.07,2.28-0.15,3.4-0.21c1.13-0.06,2.28-0.15,3.4-0.21c1.21-0.07,2.45-0.15,3.66-0.21c1.21-0.06,2.46-0.15,3.66-0.21
		c1.3-0.07,2.63-0.15,3.92-0.21c1.21-0.05,2.48-0.17,3.66-0.21c1.12-0.05,2.3-0.16,3.4-0.21c1.1-0.03,2.36-0.21,3.4-0.21
		C557.12,65.38,557.92,65.36,558.69,65.39z"/>
</g>
</svg>
